<svg width="84" height="29" viewBox="0 0 84 29" fill="none" xmlns="http://www.w3.org/2000/svg">
<path d="M1.01136 15V3.36364H5.60227C6.48485 3.36364 7.23674 3.5322 7.85795 3.86932C8.47917 4.20265 8.95265 4.66667 9.27841 5.26136C9.60795 5.85227 9.77273 6.53409 9.77273 7.30682C9.77273 8.07955 9.60606 8.76136 9.27273 9.35227C8.93939 9.94318 8.45644 10.4034 7.82386 10.733C7.19508 11.0625 6.43371 11.2273 5.53977 11.2273H2.61364V9.25568H5.14205C5.61553 9.25568 6.00568 9.17424 6.3125 9.01136C6.62311 8.8447 6.85417 8.61553 7.00568 8.32386C7.16098 8.02841 7.23864 7.68939 7.23864 7.30682C7.23864 6.92045 7.16098 6.58333 7.00568 6.29545C6.85417 6.00379 6.62311 5.77841 6.3125 5.61932C6.00189 5.45644 5.60795 5.375 5.13068 5.375H3.47159V15H1.01136ZM13.831 3.36364V15H11.3707V3.36364H13.831ZM17.9574 3.36364L20.7699 12.2045H20.8778L23.696 3.36364H26.4233L22.4119 15H19.2415L15.2244 3.36364H17.9574ZM37.5568 3.36364V15H35.4318L30.3693 7.67614H30.2841V15H27.8239V3.36364H29.983L35.0057 10.6818H35.108V3.36364H37.5568ZM39.5895 15V3.36364H47.4304V5.39205H42.0497V8.16477H47.027V10.1932H42.0497V12.9716H47.4531V15H39.5895ZM59.1193 3.36364V15H56.9943L51.9318 7.67614H51.8466V15H49.3864V3.36364H51.5455L56.5682 10.6818H56.6705V3.36364H59.1193ZM61.152 15V3.36364H63.6122V8.49432H63.7656L67.9531 3.36364H70.902L66.5838 8.57386L70.9531 15H68.0099L64.8224 10.2159L63.6122 11.6932V15H61.152ZM82.2202 9.18182C82.2202 10.4508 81.9796 11.5303 81.4986 12.4205C81.0213 13.3106 80.3698 13.9905 79.544 14.4602C78.7221 14.9261 77.7978 15.1591 76.7713 15.1591C75.7372 15.1591 74.8092 14.9242 73.9872 14.4545C73.1652 13.9848 72.5156 13.3049 72.0384 12.4148C71.5611 11.5246 71.3224 10.447 71.3224 9.18182C71.3224 7.91288 71.5611 6.83333 72.0384 5.94318C72.5156 5.05303 73.1652 4.375 73.9872 3.90909C74.8092 3.43939 75.7372 3.20455 76.7713 3.20455C77.7978 3.20455 78.7221 3.43939 79.544 3.90909C80.3698 4.375 81.0213 5.05303 81.4986 5.94318C81.9796 6.83333 82.2202 7.91288 82.2202 9.18182ZM79.7259 9.18182C79.7259 8.35985 79.6027 7.66667 79.3565 7.10227C79.1141 6.53788 78.7713 6.10985 78.3281 5.81818C77.8849 5.52652 77.366 5.38068 76.7713 5.38068C76.1766 5.38068 75.6577 5.52652 75.2145 5.81818C74.7713 6.10985 74.4266 6.53788 74.1804 7.10227C73.938 7.66667 73.8168 8.35985 73.8168 9.18182C73.8168 10.0038 73.938 10.697 74.1804 11.2614C74.4266 11.8258 74.7713 12.2538 75.2145 12.5455C75.6577 12.8371 76.1766 12.983 76.7713 12.983C77.366 12.983 77.8849 12.8371 78.3281 12.5455C78.7713 12.2538 79.1141 11.8258 79.3565 11.2614C79.6027 10.697 79.7259 10.0038 79.7259 9.18182Z" fill="black"/>
<path d="M46.0682 19.3068V28.875H44.9205V19.3068H46.0682ZM50.6591 27L48.9943 21.1818H50.3381L51.3011 25.2244H51.3494L52.4119 21.1818H53.5625L54.6222 25.233H54.6733L55.6364 21.1818H56.9801L55.3153 27H54.1165L53.0085 23.196H52.9631L51.858 27H50.6591ZM59.1357 27.0852C58.6868 27.0852 58.3004 26.9943 57.9766 26.8125C57.6546 26.6288 57.4065 26.3693 57.2322 26.0341C57.058 25.697 56.9709 25.2983 56.9709 24.8381C56.9709 24.3892 57.058 23.9953 57.2322 23.6562C57.4065 23.3172 57.6518 23.053 57.968 22.8636C58.2862 22.6742 58.6593 22.5795 59.0874 22.5795C59.3752 22.5795 59.6432 22.6259 59.8913 22.7188C60.1413 22.8097 60.3591 22.947 60.5447 23.1307C60.7322 23.3144 60.8781 23.5455 60.9822 23.8239C61.0864 24.1004 61.1385 24.4242 61.1385 24.7955V25.1278H57.4538V24.3778H59.9993C59.9993 24.2036 59.9614 24.0492 59.8857 23.9148C59.8099 23.7803 59.7048 23.6752 59.5703 23.5994C59.4377 23.5218 59.2834 23.483 59.1072 23.483C58.9235 23.483 58.7607 23.5256 58.6186 23.6108C58.4785 23.6941 58.3686 23.8068 58.2891 23.9489C58.2095 24.089 58.1688 24.2453 58.1669 24.4176V25.1307C58.1669 25.3466 58.2067 25.5331 58.2862 25.6903C58.3677 25.8475 58.4822 25.9688 58.63 26.054C58.7777 26.1392 58.9529 26.1818 59.1555 26.1818C59.29 26.1818 59.4131 26.1629 59.5249 26.125C59.6366 26.0871 59.7322 26.0303 59.8118 25.9545C59.8913 25.8788 59.9519 25.786 59.9936 25.6761L61.1129 25.75C61.0561 26.0189 60.9396 26.2538 60.7635 26.4545C60.5893 26.6534 60.3639 26.8087 60.0874 26.9205C59.8127 27.0303 59.4955 27.0852 59.1357 27.0852ZM61.951 27V21.1818H63.1612V23.3693H63.1982C63.2512 23.2519 63.3279 23.1326 63.4283 23.0114C63.5305 22.8883 63.6631 22.786 63.826 22.7045C63.9908 22.6212 64.1953 22.5795 64.4396 22.5795C64.7578 22.5795 65.0514 22.6629 65.3203 22.8295C65.5893 22.9943 65.8042 23.2434 65.9652 23.5767C66.1262 23.9081 66.2067 24.3239 66.2067 24.8239C66.2067 25.3106 66.1281 25.7216 65.9709 26.0568C65.8156 26.3902 65.6035 26.643 65.3345 26.8153C65.0675 26.9858 64.7682 27.071 64.4368 27.071C64.2019 27.071 64.0021 27.0322 63.8374 26.9545C63.6745 26.8769 63.541 26.7794 63.4368 26.6619C63.3326 26.5426 63.2531 26.4223 63.1982 26.3011H63.1442V27H61.951ZM63.1357 24.8182C63.1357 25.0777 63.1716 25.304 63.2436 25.4972C63.3156 25.6903 63.4197 25.8409 63.5561 25.9489C63.6925 26.0549 63.8582 26.108 64.0533 26.108C64.2502 26.108 64.4169 26.054 64.5533 25.946C64.6896 25.8362 64.7929 25.6847 64.8629 25.4915C64.9349 25.2964 64.9709 25.072 64.9709 24.8182C64.9709 24.5663 64.9358 24.3447 64.8658 24.1534C64.7957 23.9621 64.6925 23.8125 64.5561 23.7045C64.4197 23.5966 64.2521 23.5426 64.0533 23.5426C63.8563 23.5426 63.6896 23.5947 63.5533 23.6989C63.4188 23.803 63.3156 23.9508 63.2436 24.142C63.1716 24.3333 63.1357 24.5587 63.1357 24.8182ZM69.0994 27H67.0369V21.1818H69.1165C69.7017 21.1818 70.2055 21.2983 70.6278 21.5312C71.0502 21.7623 71.375 22.0947 71.6023 22.5284C71.8314 22.9621 71.946 23.4811 71.946 24.0852C71.946 24.6913 71.8314 25.2121 71.6023 25.6477C71.375 26.0833 71.0483 26.4176 70.6222 26.6506C70.1979 26.8835 69.6903 27 69.0994 27ZM68.267 25.946H69.0483C69.4119 25.946 69.7178 25.8816 69.9659 25.7528C70.2159 25.6222 70.4034 25.4205 70.5284 25.1477C70.6553 24.8731 70.7188 24.5189 70.7188 24.0852C70.7188 23.6553 70.6553 23.304 70.5284 23.0312C70.4034 22.7585 70.2169 22.5578 69.9688 22.429C69.7206 22.3002 69.4148 22.2358 69.0511 22.2358H68.267V25.946ZM74.8232 27.0852C74.3743 27.0852 73.9879 26.9943 73.6641 26.8125C73.3421 26.6288 73.094 26.3693 72.9197 26.0341C72.7455 25.697 72.6584 25.2983 72.6584 24.8381C72.6584 24.3892 72.7455 23.9953 72.9197 23.6562C73.094 23.3172 73.3393 23.053 73.6555 22.8636C73.9737 22.6742 74.3468 22.5795 74.7749 22.5795C75.0627 22.5795 75.3307 22.6259 75.5788 22.7188C75.8288 22.8097 76.0466 22.947 76.2322 23.1307C76.4197 23.3144 76.5656 23.5455 76.6697 23.8239C76.7739 24.1004 76.826 24.4242 76.826 24.7955V25.1278H73.1413V24.3778H75.6868C75.6868 24.2036 75.6489 24.0492 75.5732 23.9148C75.4974 23.7803 75.3923 23.6752 75.2578 23.5994C75.1252 23.5218 74.9709 23.483 74.7947 23.483C74.611 23.483 74.4482 23.5256 74.3061 23.6108C74.166 23.6941 74.0561 23.8068 73.9766 23.9489C73.897 24.089 73.8563 24.2453 73.8544 24.4176V25.1307C73.8544 25.3466 73.8942 25.5331 73.9737 25.6903C74.0552 25.8475 74.1697 25.9688 74.3175 26.054C74.4652 26.1392 74.6404 26.1818 74.843 26.1818C74.9775 26.1818 75.1006 26.1629 75.2124 26.125C75.3241 26.0871 75.4197 26.0303 75.4993 25.9545C75.5788 25.8788 75.6394 25.786 75.6811 25.6761L76.8004 25.75C76.7436 26.0189 76.6271 26.2538 76.451 26.4545C76.2768 26.6534 76.0514 26.8087 75.7749 26.9205C75.5002 27.0303 75.183 27.0852 74.8232 27.0852ZM81.5668 22.6364L80.0412 27H78.6776L77.152 22.6364H78.4304L79.3366 25.7585H79.3821L80.2855 22.6364H81.5668Z" fill="black"/>
</svg>
